HIERARCHY
ROOT Pelvis
{
	OFFSET 0.000000 0.941512 0.000000
	CHANNELS 6 Xposition Yposition Zposition Zrotation Yrotation Xrotation 
	JOINT Pelvis_L_Hip
	{
		OFFSET 0.000000 0.000000 0.000000
		CHANNELS 3 Zrotation Yrotation Xrotation
		JOINT L_Hip
		{
			OFFSET 0.062321 -0.080322 -0.016990
			CHANNELS 3 Zrotation Yrotation Xrotation
			JOINT L_Knee
			{
				OFFSET 0.093051 -0.381305 -0.029784
				CHANNELS 3 Zrotation Yrotation Xrotation
				JOINT L_Ankle
				{
					OFFSET -0.010371 -0.431000 -0.033614
					CHANNELS 3 Zrotation Yrotation Xrotation
					End Site #name: L_Foot
					{
						OFFSET 0.069299 -0.038670 0.119418
					}
				}
			}
		}
	}
	JOINT Pelvis_R_Hip
	{
		OFFSET 0.000000 0.000000 0.000000
		CHANNELS 3 Zrotation Yrotation Xrotation
		JOINT R_Hip
		{
			OFFSET -0.055334 -0.094904 -0.002373
			CHANNELS 3 Zrotation Yrotation Xrotation
			JOINT R_Knee
			{
				OFFSET -0.064207 -0.384370 -0.019592
				CHANNELS 3 Zrotation Yrotation Xrotation
				JOINT R_Ankle
				{
					OFFSET 0.025418 -0.419734 -0.065953
					CHANNELS 3 Zrotation Yrotation Xrotation
					End Site #name: R_Foot
					{
						OFFSET -0.057233 -0.039888 0.132134
					}
				}
			}
		}
	}
	JOINT Pelvis_Spine1
	{
		OFFSET 0.000000 0.000000 0.000000
		CHANNELS 3 Zrotation Yrotation Xrotation
		JOINT Spine1
		{
			OFFSET -0.005562 0.124093 -0.043360
			CHANNELS 3 Zrotation Yrotation Xrotation
			JOINT Spine2
			{
				OFFSET 0.012244 0.139499 0.029894
				CHANNELS 3 Zrotation Yrotation Xrotation
				JOINT Spine3
				{
					OFFSET -0.002556 0.056561 0.009225
					CHANNELS 3 Zrotation Yrotation Xrotation
					JOINT Spine3_Neck
					{
						OFFSET 0.000000 0.000000 0.000000
						CHANNELS 3 Zrotation Yrotation Xrotation
						JOINT Neck
						{
							OFFSET -0.005205 0.217920 -0.024551
							CHANNELS 3 Zrotation Yrotation Xrotation
							End Site #name: Head
							{
								OFFSET 0.002365 0.091850 0.046637
							}
						}
					}
					JOINT Spine3_L_Collar
					{
						OFFSET 0.000000 0.000000 0.000000
						CHANNELS 3 Zrotation Yrotation Xrotation
						JOINT L_Collar
						{
							OFFSET 0.072225 0.116603 -0.009480
							CHANNELS 3 Zrotation Yrotation Xrotation
							JOINT L_Shoulder
							{
								OFFSET 0.115937 -0.058643 -0.021018
								CHANNELS 3 Zrotation Yrotation Xrotation
								JOINT L_Elbow
								{
									OFFSET 0.021994 -0.254722 -0.024492
									CHANNELS 3 Zrotation Yrotation Xrotation
									End Site #name: L_Wrist
									{
										OFFSET 0.048810 -0.240214 0.103329
									}
								}
							}
						}
					}
					JOINT Spine3_R_Collar
					{
						OFFSET 0.000000 0.000000 0.000000
						CHANNELS 3 Zrotation Yrotation Xrotation
						JOINT R_Collar
						{
							OFFSET -0.073372 0.120704 -0.024611
							CHANNELS 3 Zrotation Yrotation Xrotation
							JOINT R_Shoulder
							{
								OFFSET -0.108089 -0.054969 -0.020504
								CHANNELS 3 Zrotation Yrotation Xrotation
								JOINT R_Elbow
								{
									OFFSET -0.033684 -0.260739 0.009889
									CHANNELS 3 Zrotation Yrotation Xrotation
									End Site #name: R_Wrist
									{
										OFFSET -0.067980 -0.232763 0.118463
									}
								}
							}
						}
					}
				}
			}
		}
	}
}
MOTION
Frames: 17
Frame Time: 0.041667
0.059890 0.382336 0.039185 1.697246 -5.997307 -11.183160 0.000000 0.000000 0.000000 34.175318 3.965777 -69.091417 -113.266971 9.735657 -2.212453 22.167990 48.276856 0.040296 0.000000 0.000000 0.000000 -26.027084 -1.135755 -64.954993 133.375417 -41.902114 4.756800 -30.434609 -54.565413 37.173915 0.000000 0.000000 0.000000 4.586823 -6.965581 50.911193 2.634032 0.761240 40.471667 3.129094 -0.920127 -35.526596 0.000000 0.000000 0.000000 -8.557808 5.310247 18.282433 0.000000 0.000000 0.000000 60.279745 -39.155191 -43.446378 2.465641 -2.450532 -28.224188 -0.000167 1.660413 8.113580 0.000000 0.000000 0.000000 -38.713318 30.012483 -21.407170 5.044194 1.781017 -7.348772 -6.725398 -5.576366 10.696889 
0.060240 0.378860 0.038863 1.473329 -5.292644 -12.105658 0.000000 0.000000 0.000000 34.151267 3.625099 -69.129166 -113.772804 10.200613 -1.817008 21.897003 47.872408 -0.322860 0.000000 0.000000 0.000000 -25.283061 -0.977135 -65.263211 133.298200 -43.155607 5.441016 -29.515129 -53.890279 36.966491 0.000000 0.000000 0.000000 4.096623 -6.719772 50.401908 2.780774 0.657572 40.919250 3.827070 -0.218464 -35.738643 0.000000 0.000000 0.000000 -8.865751 5.593857 19.593075 0.000000 0.000000 0.000000 59.312526 -39.376609 -43.094004 2.900743 -2.342335 -27.938300 -0.718198 1.463750 8.356459 0.000000 0.000000 0.000000 -37.837159 30.521422 -21.914012 3.428542 0.820767 -3.226347 -4.906022 -3.982510 6.540005 
0.059646 0.376541 0.038734 1.523913 -4.563897 -13.032801 0.000000 0.000000 0.000000 33.846247 3.113290 -69.040649 -114.034474 10.541022 -1.503740 21.629793 47.531073 -0.175282 0.000000 0.000000 0.000000 -24.470696 -0.763307 -65.256559 132.953887 -44.241173 6.186072 -29.526272 -53.732125 37.846643 0.000000 0.000000 0.000000 3.569506 -6.474292 50.156222 2.704835 0.686633 41.698594 4.439231 0.342602 -35.852550 0.000000 0.000000 0.000000 -8.720445 5.418540 19.256037 0.000000 0.000000 0.000000 58.956525 -39.451501 -42.882993 3.423310 -2.263578 -28.160073 -0.761555 1.438721 8.304491 0.000000 0.000000 0.000000 -37.613854 30.447583 -21.875979 3.264106 0.670727 -2.449398 -4.833398 -3.874754 6.199261 
0.058856 0.373862 0.039269 1.714642 -4.044045 -13.741608 0.000000 0.000000 0.000000 33.523111 2.664665 -68.569297 -114.276863 10.098507 -1.763084 21.921955 48.062591 0.360529 0.000000 0.000000 0.000000 -23.836962 -0.570424 -65.386255 133.372016 -43.986323 5.809376 -31.824045 -54.889247 40.724051 0.000000 0.000000 0.000000 3.205482 -6.315842 50.111806 2.387241 0.862591 42.352571 4.947811 0.733507 -35.821336 0.000000 0.000000 0.000000 -8.540910 5.164679 18.053408 0.000000 0.000000 0.000000 58.915899 -39.458376 -42.803051 3.800077 -2.228335 -28.613297 -0.684958 1.390096 7.937958 0.000000 0.000000 0.000000 -37.627856 30.225766 -21.695251 3.566793 0.560540 -1.634630 -5.050882 -3.733516 5.180027 
0.058568 0.370807 0.040517 2.009896 -3.737376 -14.143900 0.000000 0.000000 0.000000 33.475915 2.442087 -67.497604 -114.663538 8.787082 -2.662764 22.192418 48.553410 1.038891 0.000000 0.000000 0.000000 -23.582989 -0.509333 -65.129700 133.903208 -43.605983 5.332658 -34.362312 -56.207951 42.923281 0.000000 0.000000 0.000000 3.070733 -6.260579 50.020140 2.255098 0.936622 42.738052 4.906032 0.521487 -35.665393 0.000000 0.000000 0.000000 -8.087903 4.730698 16.237220 0.000000 0.000000 0.000000 58.918512 -39.567676 -43.037666 3.752522 -2.266311 -28.993345 -0.411699 1.517654 8.105189 0.000000 0.000000 0.000000 -37.785439 30.001155 -21.463552 4.060756 0.576972 -1.467953 -5.188420 -3.632561 4.480700 
0.059158 0.367028 0.042366 2.374993 -3.593024 -14.204491 0.000000 0.000000 0.000000 33.818445 2.495156 -66.054632 -115.266762 7.021003 -3.894181 21.724307 47.937486 1.414448 0.000000 0.000000 0.000000 -24.003957 -0.763275 -64.420245 135.288923 -42.334365 3.988234 -36.758453 -57.435751 44.550798 0.000000 0.000000 0.000000 3.123481 -6.290627 49.856656 2.413431 0.835762 42.743340 4.343267 -0.198359 -35.718384 0.000000 0.000000 0.000000 -7.584007 4.302544 14.384081 0.000000 0.000000 0.000000 58.947056 -39.719031 -43.411888 2.764114 -2.463592 -29.055001 -0.152485 1.723847 8.704734 0.000000 0.000000 0.000000 -37.962960 29.700790 -21.071843 4.800305 0.783922 -2.212857 -5.219273 -3.748472 4.929346 
0.060346 0.363203 0.044808 2.313275 -3.735313 -14.049395 0.000000 0.000000 0.000000 34.292616 2.663682 -64.242687 -116.048018 4.715218 -5.492665 21.608090 47.952353 2.786521 0.000000 0.000000 0.000000 -24.713256 -1.095738 -63.488639 136.341946 -41.601768 3.131859 -35.819329 -56.939479 44.028448 0.000000 0.000000 0.000000 3.482001 -6.499591 49.701174 2.339918 0.876058 42.475669 3.929080 -0.700926 -35.691239 0.000000 0.000000 0.000000 -7.310631 4.043487 12.786165 0.000000 0.000000 0.000000 58.536239 -39.609867 -43.119123 1.251407 -2.775256 -29.199950 0.247753 1.899860 8.930508 0.000000 0.000000 0.000000 -38.106809 29.321408 -20.611819 5.480020 0.947826 -2.709040 -5.198934 -3.769070 5.059091 
0.062391 0.359952 0.048325 2.038170 -4.029961 -14.120779 0.000000 0.000000 0.000000 34.937422 2.910382 -62.139787 -116.864261 3.020178 -6.633810 21.530036 47.629084 1.176520 0.000000 0.000000 0.000000 -25.734069 -1.526670 -61.930904 137.408405 -41.484496 2.632014 -32.928469 -54.691329 45.541933 0.000000 0.000000 0.000000 3.737889 -6.596979 49.499145 2.288592 0.919022 42.390490 3.800538 -0.764456 -35.530363 0.000000 0.000000 0.000000 -7.227237 3.956860 12.161260 0.000000 0.000000 0.000000 57.895876 -39.138615 -42.087342 -0.181966 -3.149328 -29.952598 0.700464 2.038139 8.876575 0.000000 0.000000 0.000000 -38.294244 28.875718 -20.148303 6.165410 1.126572 -3.243925 -5.659840 -4.036183 5.368120 
0.065283 0.357030 0.052482 1.448462 -4.248593 -14.314136 0.000000 0.000000 0.000000 35.201600 2.910268 -60.271122 -117.568089 1.956666 -7.328562 20.993314 46.803211 0.861962 0.000000 0.000000 0.000000 -26.678332 -1.908686 -59.857776 138.638757 -40.174742 1.472718 -32.726666 -54.310006 46.796572 0.000000 0.000000 0.000000 4.107343 -6.765131 48.980565 2.365223 0.896027 42.753917 3.817751 -0.751705 -35.412729 0.000000 0.000000 0.000000 -7.215880 3.935624 11.897896 0.000000 0.000000 0.000000 57.186482 -38.971735 -41.488794 -0.795515 -3.352805 -30.570115 0.894094 2.179267 9.297553 0.000000 0.000000 0.000000 -37.999511 28.687334 -19.902377 5.774371 1.127142 -3.470176 -5.515424 -4.051547 5.713646 
0.069036 0.353215 0.056186 0.509839 -4.385506 -14.310960 0.000000 0.000000 0.000000 35.648190 3.056152 -59.562630 -117.834379 3.033849 -6.610277 18.611144 42.341205 -1.966533 0.000000 0.000000 0.000000 -27.486373 -2.229710 -57.879435 141.543768 -35.212282 -2.049098 -46.883318 -60.606972 55.373125 0.000000 0.000000 0.000000 4.645191 -7.064914 48.282268 2.490560 0.828757 42.880761 3.992085 -0.701360 -35.188536 0.000000 0.000000 0.000000 -7.200798 3.912068 11.592453 0.000000 0.000000 0.000000 57.358452 -38.857523 -41.444228 -1.574904 -3.596963 -31.212042 1.289312 2.422419 9.936475 0.000000 0.000000 0.000000 -38.202618 28.826614 -20.091094 5.587030 1.117581 -3.546263 -5.633004 -4.248706 6.382845 
0.073585 0.349589 0.059129 -0.305334 -4.608179 -14.106863 0.000000 0.000000 0.000000 36.031783 3.258364 -59.378294 -118.281558 2.605730 -6.899580 18.443575 41.940507 -2.324497 0.000000 0.000000 0.000000 -28.079221 -2.420574 -56.614869 142.604930 -33.319439 -3.275596 -49.566132 -61.225239 58.131384 0.000000 0.000000 0.000000 4.855310 -7.148461 47.892077 2.824145 0.642015 42.817929 4.343551 -0.470590 -35.185953 0.000000 0.000000 0.000000 -7.643355 4.120670 10.941221 0.000000 0.000000 0.000000 58.033796 -38.833400 -41.749714 -2.484467 -3.820778 -31.430460 0.945003 2.425595 10.578729 0.000000 0.000000 0.000000 -38.388098 28.932815 -20.242377 5.414469 0.994133 -3.008033 -6.035792 -4.330696 5.986555 
0.079039 0.347381 0.061517 -1.144740 -5.028676 -13.918096 0.000000 0.000000 0.000000 36.182765 3.435924 -59.455167 -118.512284 2.817007 -6.803167 18.132495 41.442109 -2.118296 0.000000 0.000000 0.000000 -28.460492 -2.465920 -55.703579 143.333678 -32.303023 -3.952616 -50.441210 -61.486570 58.756503 0.000000 0.000000 0.000000 5.281539 -7.365792 47.702581 3.040163 0.539130 42.930737 4.640410 -0.284935 -35.145366 0.000000 0.000000 0.000000 -8.183678 4.314578 9.417992 0.000000 0.000000 0.000000 57.913139 -38.618934 -41.370419 -3.645811 -4.096152 -31.554695 1.539034 2.533868 10.138250 0.000000 0.000000 0.000000 -38.543828 28.671559 -19.976663 5.059152 1.020868 -3.354620 -6.546081 -4.483868 5.700243 
0.085051 0.347422 0.063535 -1.836043 -5.558334 -13.479261 0.000000 0.000000 0.000000 36.120816 3.591374 -59.797878 -118.309355 3.389760 -6.511328 17.747409 40.583160 -2.516652 0.000000 0.000000 0.000000 -28.932985 -2.551875 -55.637282 143.650333 -31.767752 -4.276357 -51.034679 -61.638709 59.253195 0.000000 0.000000 0.000000 6.014762 -7.764826 47.524148 2.930003 0.643210 43.208417 4.727962 -0.219601 -34.900290 0.000000 0.000000 0.000000 -8.700834 4.324777 5.850987 0.000000 0.000000 0.000000 57.113875 -37.912365 -39.940716 -4.030285 -4.348026 -32.579955 2.010213 2.430853 8.677671 0.000000 0.000000 0.000000 -38.724710 28.317996 -19.611783 4.289042 1.006746 -3.753541 -6.854541 -4.478969 5.056243 
0.091485 0.348865 0.065270 -2.438722 -6.019027 -12.599219 0.000000 0.000000 0.000000 36.017322 3.782231 -60.644255 -117.841062 3.952928 -6.237031 17.567373 40.157545 -2.658571 0.000000 0.000000 0.000000 -29.441307 -2.698407 -56.281386 143.724693 -31.349113 -4.496474 -52.021762 -62.193123 58.993119 0.000000 0.000000 0.000000 6.708933 -8.141890 47.308461 2.640852 0.836250 42.882560 4.939892 0.010000 -34.412812 0.000000 0.000000 0.000000 -9.309172 4.201477 0.274717 0.000000 0.000000 0.000000 57.231322 -37.204468 -38.969120 -3.892966 -4.689547 -35.012556 2.146235 2.589456 9.345908 0.000000 0.000000 0.000000 -39.376267 28.224662 -19.629680 3.733653 1.014715 -4.176327 -7.262108 -4.739774 5.480833 
0.097950 0.350734 0.066613 -2.924182 -6.356335 -11.680361 0.000000 0.000000 0.000000 35.862585 3.921769 -61.507853 -117.220712 4.520046 -5.939253 17.265133 39.453363 -2.927412 0.000000 0.000000 0.000000 -30.044494 -2.935637 -57.162767 143.605258 -31.283225 -4.515978 -52.216181 -62.233100 59.173208 0.000000 0.000000 0.000000 7.239917 -8.425733 47.095604 2.425418 0.964751 42.219824 5.316624 0.307734 -34.167859 0.000000 0.000000 0.000000 -10.171651 4.152838 -5.227719 0.000000 0.000000 0.000000 57.701209 -36.991216 -38.885602 -3.556987 -4.804275 -36.358387 2.171011 2.741159 10.194391 0.000000 0.000000 0.000000 -40.119718 28.489853 -20.052963 3.161409 0.954054 -4.225570 -7.469584 -5.049806 6.590574 
0.104223 0.351656 0.068091 -3.395816 -6.688816 -11.279663 0.000000 0.000000 0.000000 35.868655 4.015112 -61.371288 -117.447049 3.064337 -6.942596 18.824566 43.001410 -0.450149 0.000000 0.000000 0.000000 -30.656100 -3.178035 -57.781728 143.936842 -31.827293 -4.415793 -49.912347 -61.446620 57.953190 0.000000 0.000000 0.000000 7.784352 -8.719431 46.924288 2.396775 0.985602 41.833258 5.427979 0.365564 -34.400326 0.000000 0.000000 0.000000 -10.938177 4.138299 -9.078626 0.000000 0.000000 0.000000 57.726795 -37.268513 -39.317257 -3.622867 -4.726432 -35.721634 2.023238 2.657093 9.975704 0.000000 0.000000 0.000000 -40.445900 28.793455 -20.415618 2.627474 0.886584 -4.188039 -7.292381 -5.254257 7.977461 
0.110009 0.350629 0.069008 -4.055653 -6.926088 -11.493945 0.000000 0.000000 0.000000 35.873324 4.003878 -60.929260 -117.474017 3.585785 -6.600480 17.944411 41.954725 0.944569 0.000000 0.000000 0.000000 -30.591708 -3.130167 -58.011567 145.444011 -28.570813 -6.235885 -68.552257 -65.075790 72.835953 0.000000 0.000000 0.000000 8.466555 -9.118873 46.670141 2.451099 0.972660 42.191649 5.282494 0.135623 -34.765253 0.000000 0.000000 0.000000 -11.048049 3.923132 -12.231798 0.000000 0.000000 0.000000 57.682264 -37.506079 -39.669468 -4.104194 -4.807506 -35.384141 2.235077 2.736823 10.044386 0.000000 0.000000 0.000000 -40.621225 29.019466 -20.637880 2.571124 0.871119 -4.128861 -7.361044 -5.403864 8.600002 
